<svg width="81" height="81" viewBox="0 0 81 81" fill="none" xmlns="http://www.w3.org/2000/svg">
<circle cx="40.5" cy="40.5" r="40.5" fill="#333333"/>
<path d="M64.7987 50.5136C64.7987 46.7025 63.8894 43.5405 62.065 41.1022C60.1715 38.595 56.9054 36.2227 52.2954 34.1549C51.7429 33.9252 50.9372 33.5805 49.9012 33.0722C45.2251 31.0906 43.205 29.2008 43.205 26.9636C43.205 25.6252 43.723 24.4477 44.8021 23.635C45.743 22.848 46.9747 22.5494 48.4106 22.5494C50.4825 22.5494 52.6292 23.0663 54.9543 24.33C56.7126 25.2375 58.6291 26.6074 60.7528 28.2617L67.8375 15.7198C65.1642 13.652 62.1657 11.9662 59.0262 10.8835C55.4608 9.60257 51.4465 8.96786 47.1329 8.96786C39.7892 8.96786 33.7807 10.9754 29.2744 14.864C24.7565 18.7785 22.6357 23.6321 22.6357 29.8097C22.6357 33.5805 23.7205 36.7914 25.919 39.4164C28.1953 42.1878 31.9707 44.6347 37.1332 46.8634C37.5735 46.9639 38.1519 47.2195 38.8137 47.5239C41.6079 48.6756 44.8654 50.2695 44.8654 52.837C44.8654 54.2098 44.1431 55.3615 42.8884 56.0996C41.8698 56.7084 40.5115 57.0645 38.8828 57.0645C35.7663 57.0645 32.5664 56.1656 29.4873 54.3362C27.0097 52.8887 24.6155 50.93 22.3652 48.3884L13.1625 62.0187C16.9149 65.1692 21.0386 67.6362 25.1996 69.3134C29.7405 71.229 34.4368 72.1768 39.1734 72.1768C46.6092 72.1768 52.8134 70.0429 57.6939 65.8901C62.4304 61.7372 64.7987 56.7056 64.7987 50.5136Z" fill="white"/>
</svg>